<?xml version="1.0" encoding="UTF-8" standalone="no"?>
<svg
   xmlns:dc="http://purl.org/dc/elements/1.1/"
   xmlns:cc="http://creativecommons.org/ns#"
   xmlns:rdf="http://www.w3.org/1999/02/22-rdf-syntax-ns#"
   xmlns:svg="http://www.w3.org/2000/svg"
   xmlns="http://www.w3.org/2000/svg"
   xmlns:sodipodi="http://sodipodi.sourceforge.net/DTD/sodipodi-0.dtd"
   xmlns:inkscape="http://www.inkscape.org/namespaces/inkscape"
   inkscape:export-ydpi="96"
   inkscape:export-xdpi="96"
   inkscape:export-filename="C:\Users\samue\Google Drive\MSc\Web Technologies\Logo.png"
   sodipodi:docname="Logo.svg"
   inkscape:version="1.0 (4035a4fb49, 2020-05-01)"
   id="svg8"
   version="1.1"
   viewBox="0 0 140.50407 105.36018"
   height="105.36018mm"
   width="140.50407mm">
  <defs
     id="defs2" />
  <sodipodi:namedview
     inkscape:pagecheckerboard="false"
     inkscape:window-maximized="1"
     inkscape:window-y="-9"
     inkscape:window-x="-9"
     inkscape:window-height="1001"
     inkscape:window-width="1920"
     showgrid="false"
     inkscape:document-rotation="0"
     inkscape:current-layer="layer1"
     inkscape:document-units="mm"
     inkscape:cy="215.35078"
     inkscape:cx="288.72983"
     inkscape:zoom="1"
     inkscape:pageshadow="2"
     inkscape:pageopacity="0"
     borderopacity="1.0"
     bordercolor="#666666"
     pagecolor="#ffffff"
     id="base" />
  <metadata
     id="metadata5">
    <rdf:RDF>
      <cc:Work
         rdf:about="">
        <dc:format>image/svg+xml</dc:format>
        <dc:type
           rdf:resource="http://purl.org/dc/dcmitype/StillImage" />
        <dc:title></dc:title>
      </cc:Work>
    </rdf:RDF>
  </metadata>
  <g
     transform="translate(-37.433386,-46.274049)"
     id="layer1"
     inkscape:groupmode="layer"
     inkscape:label="Layer 1">
    <path
       inkscape:export-ydpi="96"
       inkscape:export-xdpi="96"
       transform="scale(0.26458333)"
       d="M 406.41016,181.00977 A 192.99053,192.99053 0 0 0 214.00977,374 a 192.99053,192.99053 0 0 0 5.5625,46 h 374.85546 a 192.99053,192.99053 0 0 0 5.5625,-46 A 192.99053,192.99053 0 0 0 407,181.00977 a 192.99053,192.99053 0 0 0 -0.58984,0 z M 270.07227,510 A 192.99053,192.99053 0 0 0 407,566.99023 192.99053,192.99053 0 0 0 543.92773,510 Z"
       style="fill:#c8beb7;stroke:none;stroke-width:7.55905522;stroke-miterlimit:4;stroke-dasharray:none"
       id="path1158" />
    <text
       transform="scale(1.0886365,0.91858025)"
       id="text1131"
       y="143.27509"
       x="32.897556"
       style="font-style:normal;font-variant:normal;font-weight:normal;font-stretch:normal;font-size:24.3796px;line-height:1.25;font-family:'Agency FB';-inkscape-font-specification:'Agency FB, Normal';font-variant-ligatures:normal;font-variant-caps:normal;font-variant-numeric:normal;font-variant-east-asian:normal;fill:#000000;fill-opacity:1;stroke:none;stroke-width:0.609491"
       xml:space="preserve"><tspan
         style="font-style:normal;font-variant:normal;font-weight:normal;font-stretch:normal;font-size:24.3796px;font-family:'Agency FB';-inkscape-font-specification:'Agency FB, Normal';font-variant-ligatures:normal;font-variant-caps:normal;font-variant-numeric:normal;font-variant-east-asian:normal;stroke:none;stroke-width:0.609491"
         y="143.27509"
         x="32.897556"
         id="tspan1129"
         sodipodi:role="line">NATURE'S GIANTS</tspan></text>
    <path
       id="path1151"
       d="m 111.43368,107.72708 c -0.27387,-0.0544 -0.4407,-0.23969 -0.4407,-0.4895 0,-0.22249 0.0348,-0.25256 0.57026,-0.49185 0.83746,-0.3743 0.95216,-0.49745 0.89969,-0.96604 -0.0623,-0.55622 0.0415,-0.7287 0.53269,-0.88546 0.56428,-0.18009 1.68113,-1.16624 1.6837,-1.48666 0.003,-0.43901 0.081,-0.53216 0.65648,-0.78937 0.63109,-0.28206 2.06738,-1.14439 2.06738,-1.24123 0,-0.0352 -0.0901,-0.1164 -0.20033,-0.18047 -0.25128,-0.14613 -0.25038,-0.25293 0.007,-0.88754 0.14545,-0.357835 0.19185,-0.577995 0.15453,-0.733145 -0.0293,-0.121953 -0.0598,-0.332083 -0.0677,-0.466933 -0.0158,-0.27138 0.006,-0.28277 1.02736,-0.54339 0.26442,-0.0674 0.51291,-0.14775 0.5522,-0.17844 0.0393,-0.0307 -0.13085,-0.14386 -0.37814,-0.2515 -0.32057,-0.13954 -0.4721,-0.25298 -0.52799,-0.39529 -0.0431,-0.10977 -0.12134,-0.19958 -0.17382,-0.19958 -0.0525,0 -0.52435,0.0649 -1.04858,0.14433 l -0.95315,0.14433 -0.53811,-0.15333 c -0.31394,-0.0895 -0.87076,-0.1718 -1.33665,-0.19767 l -0.79853,-0.0443 -0.0709,-0.26712 c -0.0504,-0.19007 -0.12059,-0.27543 -0.24312,-0.29591 -0.0947,-0.0158 -1.12773,-0.08141 -2.29558,-0.145703 -2.13412,-0.1175 -4.31006,-0.361381 -9.21467,-1.032786 -3.082911,-0.422028 -7.155387,-1.032211 -8.482002,-1.270865 -0.632687,-0.113818 -1.235533,-0.186619 -1.339658,-0.16178 -0.36857,0.08792 -1.212466,0.692763 -1.773601,1.271179 -0.292317,0.30132 -2.092735,1.504385 -2.332796,1.558815 -0.251343,0.057 -0.562274,-0.0791 -0.650293,-0.284533 -0.131783,-0.307623 -1.340756,-1.086889 -2.336732,-1.506183 -0.35448,-0.149232 -0.571055,-0.456849 -0.537692,-0.763726 0.02471,-0.227293 0.02074,-0.230177 -0.295461,-0.214562 -0.176282,0.0087 -0.663056,0.01572 -1.081722,0.01558 -0.43272,-1.42e-4 -0.92616,0.04392 -1.143445,0.102097 -0.335186,0.08975 -0.396827,0.0894 -0.500797,-0.0029 -0.06521,-0.05787 -0.118562,-0.18294 -0.118562,-0.277927 0,-0.174453 0.02835,-0.203943 0.594488,-0.618387 l 0.314045,-0.229897 1.328569,4.8e-5 c 0.887951,3.3e-5 1.674377,0.04498 2.371256,0.135527 1.009575,0.131176 1.641585,0.118808 1.641585,-0.03213 0,-0.03734 -0.02127,-0.06789 -0.04727,-0.06789 -0.222305,0 -4.086629,-0.722502 -5.321275,-0.994904 -2.263203,-0.499334 -4.043854,-0.828332 -5.368541,-0.991906 -3.025627,-0.373608 -3.315864,-0.347899 -4.328179,0.383389 -0.609177,0.440065 -1.155321,0.665762 -1.405135,0.580684 -0.05918,-0.02015 -0.147251,-0.174295 -0.195722,-0.342538 -0.106024,-0.368017 -0.312582,-0.737972 -0.493721,-0.884285 -0.185742,-0.150032 -0.866153,-0.288531 -1.681091,-0.34219 -0.983827,-0.06478 -2.514712,0.167437 -3.073936,0.46628 -0.932971,0.498569 -1.137167,0.678741 -1.821417,1.607131 -0.368665,0.500205 -0.794754,1.094755 -0.946864,1.321221 -0.301387,0.448714 -0.300856,0.448489 -1.218061,0.515228 -0.341545,0.02485 -0.620989,0.0702 -0.620989,0.10078 0,0.03058 0.139305,0.137415 0.309569,0.237414 0.170261,0.1 0.328153,0.244895 0.350871,0.321991 0.100861,0.342306 -0.460077,0.871942 -1.728195,1.631758 -1.915142,1.14749 -3.734099,2.36797 -4.544285,3.049118 -0.303945,0.25553 -0.989931,0.66187 -1.426732,0.8451 -0.24402,0.10237 -0.285247,0.1024 -0.460733,3.6e-4 -0.302698,-0.17602 -0.248113,-0.43556 0.208526,-0.991455 0.669117,-0.814563 1.344839,-2.015333 1.57289,-2.795053 0.183396,-0.627049 0.19927,-0.787111 0.160681,-1.620261 -0.05272,-1.13823 0.04551,-1.566439 0.395683,-1.724872 0.128637,-0.0582 0.305999,-0.161068 0.39414,-0.228593 0.08814,-0.06753 0.367585,-0.225988 0.620988,-0.35214 0.253403,-0.126152 0.460733,-0.259734 0.460733,-0.296851 0,-0.03712 -0.139586,-0.202773 -0.310191,-0.368127 l -0.31019,-0.300644 0.05653,-0.568909 c 0.07464,-0.751262 -0.10899,-2.144623 -0.351464,-2.666762 -0.0999,-0.215119 -0.424566,-0.919144 -0.721484,-1.5645 -0.547773,-1.190594 -0.713568,-1.434242 -1.684496,-2.475496 -0.433008,-0.46437 -0.565238,-0.55428 -1.238609,-0.842193 -0.523139,-0.223677 -0.879674,-0.43456 -1.164977,-0.689061 -0.505761,-0.451164 -1.254324,-1.441616 -1.486465,-1.966805 -0.325938,-0.737392 -0.428913,-0.872049 -0.904496,-1.182768 -0.56319,-0.367957 -0.723619,-0.386137 -0.858435,-0.09728 -0.05476,0.117337 -0.147167,0.21334 -0.205341,0.21334 -0.05818,0 -0.218672,-0.187993 -0.356661,-0.417764 -0.347508,-0.578646 -0.626831,-0.855627 -1.078928,-1.069881 -0.565646,-0.268066 -0.607143,-0.362805 -0.342158,-0.781174 0.121156,-0.191284 0.220284,-0.396058 0.220284,-0.455055 0,-0.06239 -0.217325,-0.197522 -0.519555,-0.323043 -0.442023,-0.183578 -0.538415,-0.257612 -0.645942,-0.496117 -0.330963,-0.73411 -0.931323,-1.775787 -1.13,-1.960653 -0.263221,-0.244923 -0.589093,-0.84237 -0.589093,-1.08003 0,-0.250749 0.343029,-0.307739 0.647967,-0.10765 0.246284,0.161601 1.444294,0.415952 2.076367,0.440835 0.198316,0.0078 0.508165,-0.0086 0.688554,-0.03656 0.281523,-0.04357 0.516957,0.01003 1.662107,0.378342 0.73377,0.236003 1.415498,0.475203 1.514952,0.531555 0.09945,0.05635 0.502556,0.202287 0.895782,0.3243 0.68962,0.213979 1.795139,0.658006 2.209696,0.887515 0.110176,0.06099 0.409863,0.178164 0.665972,0.260373 0.377258,0.121097 0.49064,0.195976 0.597287,0.394458 0.101867,0.189587 0.112797,0.289277 0.04834,0.440843 -0.04581,0.107721 -0.05571,0.258452 -0.02199,0.334957 0.03372,0.07651 0.06384,0.229261 0.06694,0.339457 0.0046,0.162086 0.03413,0.192328 0.154833,0.158328 0.08206,-0.02312 0.313348,0.02042 0.513975,0.09674 0.320302,0.121853 0.395232,0.195413 0.614614,0.603377 0.137413,0.255532 0.293454,0.488526 0.346759,0.517765 0.0533,0.02924 0.331577,0.05448 0.618384,0.0561 0.513916,0.0029 0.534226,0.01058 1.402868,0.531015 0.598312,0.358465 1.143656,0.767926 1.697933,1.274862 0.885206,0.809599 0.884837,0.808681 0.481889,1.201337 -0.218233,0.212659 -0.144675,0.256861 0.209126,0.125663 0.374355,-0.138821 0.852764,-0.137394 1.078959,0.0032 0.09805,0.06095 0.324089,0.301388 0.502308,0.534304 0.369802,0.483298 0.975446,0.938572 1.417215,1.065343 0.165892,0.0476 0.445851,0.160298 0.622131,0.250426 0.176281,0.09013 0.771227,0.312386 1.322104,0.493904 0.958323,0.315774 1.07948,0.337402 2.804462,0.500633 0.991578,0.09383 1.862557,0.171269 1.93551,0.172085 0.07295,8.18e-4 0.277153,-0.105669 0.453777,-0.236636 l 0.321135,-0.238118 0.46769,0.08679 c 0.504435,0.09361 1.370748,0.332855 1.950047,0.538543 0.599185,0.212749 0.715916,0.225875 0.925389,0.104063 0.108018,-0.06281 0.196396,-0.149936 0.196396,-0.193605 0,-0.113959 -0.983196,-0.957976 -1.180783,-1.013634 -0.189488,-0.05338 -0.456578,-0.498447 -0.39064,-0.650952 0.02608,-0.0603 0.153708,-0.101692 0.313577,-0.101692 0.148283,0 0.29147,-0.01941 0.318193,-0.04312 0.02673,-0.02372 -0.129526,-0.246807 -0.347219,-0.495757 l -0.395806,-0.452633 v -0.677618 c 0,-0.37269 0.02105,-0.677618 0.04678,-0.677618 0.02573,0 0.305169,0.186931 0.620988,0.415403 1.349967,0.976607 2.653576,1.340047 3.848629,1.07298 0.279236,-0.0624 0.45525,-0.05034 0.97698,0.06694 0.814762,0.183163 1.904339,0.346226 2.719696,0.407022 0.693523,0.05171 0.921466,0.119994 0.921466,0.276033 0,0.05499 0.03667,0.120084 0.08148,0.144665 0.101343,0.05559 2.275307,-0.205653 3.564319,-0.428316 0.528841,-0.09135 1.231959,-0.187101 1.562486,-0.212776 1.630301,-0.126644 3.97984,-0.473887 5.528796,-0.817115 0.330526,-0.07324 0.835329,-0.168872 1.121785,-0.212514 0.286455,-0.04364 0.881402,-0.156177 1.322103,-0.250074 0.440701,-0.0939 1.179878,-0.249063 1.642613,-0.34481 0.462737,-0.09575 1.201913,-0.287635 1.642614,-0.426419 1.010606,-0.318255 2.336969,-0.676619 3.725929,-1.006691 1.64162,-0.390115 2.05596,-0.513075 2.89329,-0.858605 0.43685,-0.180276 1.03661,-0.362999 1.38647,-0.422408 0.90442,-0.153578 1.08878,-0.278354 1.08878,-0.736899 0,-0.200839 0.0208,-0.215265 0.34054,-0.235794 l 0.34055,-0.02187 -0.005,-0.426682 c -0.002,-0.234675 -0.0341,-0.606462 -0.0699,-0.826192 l -0.0651,-0.399511 0.3711,-0.226607 c 0.21791,-0.133059 0.4186,-0.327462 0.48613,-0.470912 0.0633,-0.134368 0.21862,-0.364634 0.34525,-0.511701 0.25423,-0.295276 0.57989,-0.969409 0.57989,-1.200404 0,-0.0814 -0.11253,-0.4808 -0.25007,-0.887546 -0.20138,-0.59552 -0.30169,-0.781082 -0.51509,-0.952878 -0.29974,-0.241293 -0.42619,-0.606917 -0.25383,-0.733876 0.14342,-0.105638 1.21223,-0.239369 1.46432,-0.183217 0.40508,0.09023 0.17931,-0.108692 -0.26504,-0.23352 -0.39046,-0.10969 -0.46441,-0.15755 -0.48486,-0.313778 -0.0184,-0.14093 0.0429,-0.229707 0.26041,-0.376965 0.35973,-0.243517 0.38239,-0.492393 0.0583,-0.641105 -0.12441,-0.05709 -0.27538,-0.156416 -0.33551,-0.220715 -0.0601,-0.0643 -0.28286,-0.194953 -0.49496,-0.290342 -0.25902,-0.116491 -0.38564,-0.218267 -0.38564,-0.309981 0,-0.0751 0.21635,-0.505994 0.48076,-0.957542 0.50977,-0.870524 0.58424,-1.18748 0.36058,-1.53472 -0.063,-0.09778 -0.11579,-0.260986 -0.11735,-0.362677 -0.002,-0.101691 -0.10721,-0.312766 -0.23478,-0.469054 -0.36532,-0.447585 -0.48921,-0.703653 -0.48921,-1.01119 0,-0.2191 0.0399,-0.30446 0.1718,-0.367088 0.2693,-0.12791 0.77565,-0.03315 1.04385,0.195346 0.12994,0.110696 0.79035,0.505276 1.46759,0.876845 1.43948,0.789778 2.78546,1.775957 3.7704,2.762515 1.11486,1.116709 2.79771,3.572475 3.51616,5.131098 0.28427,0.616714 0.46054,0.899764 1.08499,1.742285 0.2899,0.391125 0.68485,0.993848 0.87769,1.339386 0.36867,0.660597 0.90152,1.219639 1.36543,1.432554 0.32767,0.150384 1.46964,0.1625 2.70335,0.02868 0.76866,-0.08338 0.91872,-0.07778 2.00997,0.07497 2.31101,0.323485 6.22526,1.07295 7.62956,1.460839 0.19832,0.05478 0.61877,0.166029 0.93434,0.247226 0.492,0.126598 0.59725,0.182993 0.73876,0.395848 l 0.16502,0.248219 0.92907,-0.04709 c 0.52023,-0.02637 1.37638,-0.01223 1.94551,0.03214 0.55903,0.04358 2.01697,0.146357 3.23985,0.228404 2.58523,0.173451 3.4929,0.328949 7.472,1.280061 3.69102,0.882254 4.74513,1.103333 6.61052,1.386418 2.49848,0.379163 3.30926,0.530426 3.45073,0.64379 0.069,0.05529 0.24441,0.121636 0.38979,0.147442 0.32992,0.05856 0.72528,0.40296 0.95029,0.827786 0.0946,0.178596 0.20918,0.345127 0.25466,0.370071 0.0455,0.02494 0.0827,0.14998 0.0827,0.27786 0,0.271405 -0.28252,0.67607 -0.89938,1.288235 -0.75137,0.745639 -1.15739,1.260441 -1.5703,1.990988 -0.34443,0.609407 -0.45792,0.744425 -0.79332,0.943847 -0.21524,0.127991 -0.60466,0.424002 -0.86534,0.657802 -0.60624,0.543716 -0.83956,0.55154 -0.83956,0.02815 0,-0.09458 -0.0375,-0.171969 -0.0833,-0.171969 -0.14911,0 -0.7484,0.294088 -1.17421,0.576212 -0.40733,0.269886 -0.66554,0.305484 -0.66554,0.09176 0,-0.05449 -0.0602,-0.09906 -0.13391,-0.09906 -0.0737,0 -0.19809,-0.05155 -0.27653,-0.114557 -0.13177,-0.10583 -0.15902,-0.103121 -0.35767,0.03556 -0.28788,0.200975 -0.46856,0.18909 -0.65937,-0.04338 l -0.15881,-0.193489 -0.36691,0.300159 c -0.20179,0.165087 -0.40454,0.300159 -0.45055,0.300159 -0.046,0 -0.12471,-0.08 -0.17491,-0.177784 -0.1215,-0.236671 -0.22358,-0.224393 -0.53951,0.06489 -0.33134,0.303397 -0.54286,0.359594 -0.67053,0.178149 -0.13641,-0.193845 -0.23243,-0.169277 -0.43771,0.111984 -0.22358,0.306365 -0.52392,0.388633 -0.75149,0.205851 -0.16123,-0.129496 -0.16904,-0.126394 -0.49757,0.197595 -0.18357,0.181035 -0.38196,0.382067 -0.44086,0.446738 -0.0863,0.09474 -0.1302,0.10058 -0.22593,0.03007 -0.0653,-0.04813 -0.10108,-0.147713 -0.0794,-0.221285 0.0612,-0.207514 -0.16648,-0.234031 -0.55838,-0.06504 -0.62194,0.268168 -0.86709,0.886301 -0.49153,1.239346 0.15004,0.141046 0.95216,0.481726 1.52537,0.647864 0.1223,0.03544 0.13539,0.09352 0.0898,0.398292 -0.0293,0.196239 -0.0233,0.356798 0.0132,0.356798 0.0366,0 0.18239,-0.0996 0.32391,-0.221336 0.3341,-0.287403 0.45555,-0.221077 0.38425,0.209863 -0.0543,0.32838 -0.0533,0.330289 0.10662,0.203827 0.0888,-0.07021 0.26499,-0.134214 0.39154,-0.142227 0.20596,-0.01304 0.23275,0.01015 0.25558,0.221227 0.0217,0.201107 0.0433,0.222705 0.14633,0.1468 0.097,-0.07143 0.13347,-0.07084 0.18485,0.0029 0.0383,0.05507 0.12986,0.07339 0.22824,0.04567 0.12942,-0.03646 0.16975,-0.01169 0.19029,0.116839 0.0172,0.10798 0.0802,0.163099 0.18631,0.163099 0.10641,0 0.16908,0.05517 0.18648,0.164156 0.0215,0.134688 0.0471,0.148769 0.14259,0.07844 0.0879,-0.0647 0.16492,-0.06609 0.31433,-0.0057 0.16275,0.06581 0.19795,0.130902 0.19795,0.366023 0,0.333457 0.0401,0.350339 0.2553,0.107517 0.21692,-0.244764 0.31623,-0.158931 0.29495,0.254951 -0.0171,0.332076 0.0728,0.555939 0.14812,0.368923 0.0195,-0.04837 0.10348,-0.160371 0.18668,-0.248898 l 0.15128,-0.160957 0.002,0.354012 c 0.002,0.320952 0.0326,0.378294 0.32317,0.614029 0.29783,0.241614 0.32049,0.287024 0.32021,0.641584 0,0.4625 -0.19077,0.77338 -0.57116,0.93255 -0.14844,0.0621 -0.90088,0.21439 -1.6721,0.33841 -1.37074,0.22042 -2.67605,0.46892 -3.49184,0.66477 -0.36863,0.0885 -0.43275,0.0855 -0.68108,-0.0319 -0.15078,-0.0712 -0.3208,-0.13093 -0.37781,-0.13258 -0.24229,-0.007 -1.70745,-0.54352 -2.273,-0.83239 -0.81855,-0.41811 -2.03601,-0.77285 -3.13492,-0.91345 -0.49425,-0.0632 -1.81807,-0.24468 -2.94186,-0.40322 -2.02073,-0.285067 -2.0543,-0.287366 -3.04485,-0.208546 -0.55088,0.04384 -1.29149,0.07953 -1.64581,0.07934 -0.73395,-4.3e-4 -1.3778,0.12897 -1.97217,0.39628 -0.29722,0.13367 -0.48015,0.17283 -0.66419,0.14219 -0.19425,-0.0324 -0.36604,0.0118 -0.73028,0.1875 -0.26195,0.12639 -0.63854,0.24667 -0.83686,0.26731 l -0.36057,0.0375 -0.0241,0.37005 c -0.0195,0.29947 -0.0653,0.40121 -0.24039,0.53335 -0.33621,0.25384 -0.81724,0.805089 -0.81724,0.936539 0,0.0653 -0.33353,0.442965 -0.74118,0.839455 -0.40765,0.39648 -0.93053,0.92306 -1.16196,1.17016 -0.23143,0.2471 -0.52829,0.49863 -0.6597,0.55893 -0.1314,0.0603 -0.29436,0.20481 -0.36213,0.32112 -0.2013,0.3455 -0.40441,0.41224 -1.54127,0.50649 -0.97646,0.0809 -1.05134,0.0973 -0.9415,0.20496 0.17909,0.17563 0.14467,0.33729 -0.10102,0.47448 -0.1212,0.0677 -0.32111,0.19554 -0.44427,0.28416 -0.12316,0.0886 -0.37556,0.22082 -0.56089,0.29377 -0.40943,0.16116 -2.18197,1.17179 -2.46036,1.4028 -0.218,0.18091 -1.12647,0.54549 -2.3237,0.93257 -0.93867,0.30349 -3.20733,0.9493 -3.33475,0.9493 -0.0514,0 -0.11313,-0.0452 -0.13705,-0.10058 -0.0368,-0.0853 -0.13271,-0.081 -0.62956,0.0278 -0.74826,0.16395 -1.02764,0.20061 -1.2271,0.161 z M 77.904217,74.759322 c -0.138751,-0.123142 -0.0959,-0.217391 0.156872,-0.345046 0.16143,-0.08153 0.239876,-0.176723 0.239876,-0.291101 0,-0.116543 0.125785,-0.264092 0.400219,-0.469467 0.220121,-0.164729 0.420548,-0.37139 0.445394,-0.459247 0.02681,-0.0948 0.221028,-0.253091 0.477765,-0.389377 0.355531,-0.18873 0.432249,-0.264087 0.430668,-0.423027 -0.0064,-0.641768 0.11563,-0.936018 0.389364,-0.938994 0.142295,-0.0016 0.123979,-0.102142 -0.04302,-0.236271 -0.08673,-0.06965 -0.213171,-0.09875 -0.320703,-0.07379 -0.287368,0.06669 -1.37033,-0.04901 -1.495092,-0.159736 -0.07515,-0.06669 -0.44756,-0.124992 -1.100524,-0.172277 -1.016736,-0.07363 -4.434425,-0.52278 -5.90462,-0.775985 -0.956121,-0.164669 -0.940256,-0.168403 -1.629543,0.383524 -0.251644,0.201497 -0.549768,0.410166 -0.6625,0.463711 -0.189857,0.09018 -0.224057,0.08131 -0.463932,-0.120276 -0.142432,-0.119697 -0.41221,-0.301822 -0.599508,-0.404722 -0.187298,-0.102899 -0.340543,-0.23469 -0.340543,-0.292868 0,-0.08347 -0.117298,-0.105779 -0.556163,-0.105779 -0.30589,0 -0.57712,-0.03009 -0.602733,-0.06688 -0.07404,-0.106329 0.265741,-0.342022 0.564874,-0.391827 0.150432,-0.02505 0.408727,-0.02421 0.573991,0.0018 0.202252,0.03191 0.274284,0.0239 0.220351,-0.02449 -0.168865,-0.151508 -3.331015,-0.727604 -3.99379,-0.727604 -0.103833,0 -0.347457,0.09542 -0.541388,0.212047 -0.450761,0.27108 -0.57752,0.26822 -0.718744,-0.01622 -0.136289,-0.274498 -0.484633,-0.358792 -1.21499,-0.294007 -0.595459,0.05282 -0.962099,0.287269 -1.415854,0.905372 -0.267873,0.364896 -0.39078,0.472853 -0.538337,0.472853 -0.165507,0 -0.188478,0.03024 -0.170876,0.22488 0.02218,0.245294 0.123358,0.159981 -1.335677,1.12628 -0.38387,0.254231 -0.848779,0.565466 -1.033132,0.691633 -0.364875,0.249712 -0.615634,0.298228 -0.615634,0.119114 0,-0.06255 0.126453,-0.295555 0.28101,-0.517786 0.351992,-0.50612 0.440137,-0.776953 0.440137,-1.352342 0,-0.443248 0.0092,-0.463372 0.331849,-0.72775 0.244258,-0.200131 0.310273,-0.295792 0.250108,-0.362424 -0.04496,-0.04978 -0.100485,-0.346534 -0.123394,-0.659434 -0.07162,-0.978126 -0.767163,-2.130777 -1.462489,-2.423613 -0.339385,-0.142931 -0.618739,-0.427226 -0.894667,-0.910489 -0.245091,-0.429254 -0.40249,-0.553386 -0.640724,-0.505306 -0.131919,0.02663 -0.209979,-0.01628 -0.314045,-0.172639 -0.07617,-0.114438 -0.223893,-0.248635 -0.328276,-0.298214 -0.151693,-0.07205 -0.180203,-0.128877 -0.142036,-0.283103 0.03482,-0.140676 0.007,-0.218919 -0.102512,-0.288774 -0.22338,-0.14244 -0.868078,-1.255474 -0.775034,-1.338052 0.049,-0.04348 0.192476,-0.03162 0.396245,0.03278 0.175686,0.05553 0.49371,0.102357 0.706718,0.104074 0.399068,0.0033 1.075549,0.212849 2.236887,0.693184 0.523899,0.216687 0.620988,0.283763 0.620988,0.429027 0,0.206357 0.635821,0.800978 0.856476,0.800978 0.299326,0 1.259151,0.673809 1.392872,0.977813 0.03993,0.09079 0.138797,0.160005 0.228542,0.160005 0.08699,0 0.251046,0.10808 0.364572,0.240177 0.30542,0.35538 1.182572,0.682547 2.125442,0.792765 0.459277,0.05368 0.81474,0.06393 0.896167,0.02582 0.197931,-0.09264 0.439446,-0.07786 0.918719,0.05622 0.234706,0.06566 0.454195,0.09502 0.487751,0.06524 0.03356,-0.02978 -0.05864,-0.149029 -0.204876,-0.264995 -0.221472,-0.175624 -0.257488,-0.244789 -0.215604,-0.414034 0.02858,-0.115451 0.01366,-0.223277 -0.03453,-0.249713 -0.106356,-0.05833 -0.112624,-0.535925 -0.007,-0.535925 0.04279,0 0.244019,0.104004 0.447195,0.231119 0.3208,0.200707 0.439725,0.232421 0.903777,0.241004 0.619411,0.01146 1.655261,0.151679 1.915945,0.259358 0.130373,0.05385 0.405173,0.04247 1.001594,-0.04149 0.45206,-0.06364 1.110386,-0.150069 1.462947,-0.192074 1.429663,-0.170335 4.38904,-0.856334 6.342777,-1.470289 0.539873,-0.169653 0.8554,-0.464309 0.788157,-0.736022 -0.03909,-0.15798 0.0098,-0.267896 0.235989,-0.530933 0.156912,-0.18244 0.306741,-0.40755 0.332955,-0.500245 0.05622,-0.198801 -0.09413,-0.65471 -0.27712,-0.840313 -0.119291,-0.120995 -0.117371,-0.138438 0.02544,-0.23112 0.08496,-0.05513 0.182509,-0.100248 0.216772,-0.100248 0.03427,0 0.04137,-0.04841 0.01578,-0.107576 -0.02558,-0.05917 0.0012,-0.158524 0.05936,-0.220795 0.09109,-0.09741 0.06729,-0.141169 -0.17041,-0.313345 l -0.276284,-0.200126 0.183435,-0.335091 c 0.19426,-0.354866 0.18332,-0.640134 -0.03524,-0.918963 -0.168939,-0.215524 -0.1416,-0.464195 0.05103,-0.464195 0.253622,0 1.467883,0.732807 1.981693,1.195951 0.48149,0.434012 1.166591,1.354785 1.459938,1.96215 0.09188,0.190233 0.298677,0.541518 0.459551,0.780633 0.708525,1.053117 0.758819,1.084462 1.619342,1.009207 0.620729,-0.05429 1.487377,0.05776 2.972257,0.384259 1.038232,0.228292 1.323248,0.314584 1.399176,0.423619 0.03169,0.04551 0.392876,0.07599 0.909218,0.07674 1.38089,0.002 2.215471,0.113305 4.197076,0.559816 1.027319,0.231483 2.120254,0.457176 2.428745,0.501539 0.916623,0.131817 1.376372,0.27252 1.557229,0.476577 0.247139,0.278843 0.205108,0.456036 -0.219579,0.925676 -0.2118,0.234219 -0.429998,0.522073 -0.484884,0.639674 -0.05488,0.117601 -0.26177,0.333986 -0.459743,0.480853 -0.283466,0.210293 -0.383524,0.249672 -0.47089,0.185321 -0.08465,-0.06234 -0.167936,-0.05556 -0.351416,0.02865 -0.147102,0.06751 -0.333087,0.09393 -0.47899,0.06803 -0.276581,-0.04909 -1.353285,0.09688 -1.419869,0.192493 -0.02479,0.0356 -0.130964,0.06473 -0.235938,0.06473 -0.104974,0 -0.215244,0.03502 -0.245046,0.07781 -0.0298,0.04279 -0.139195,0.06338 -0.243096,0.04576 -0.224642,-0.03811 -0.476082,0.172761 -0.404207,0.338993 0.0267,0.06176 0.149884,0.150957 0.273733,0.198212 0.123849,0.04725 0.277646,0.127184 0.34177,0.177623 0.06413,0.05043 0.415237,0.252729 0.780248,0.449536 0.448375,0.241754 0.727793,0.447998 0.861371,0.635796 0.3867,0.543662 0.262835,0.653618 -1.001316,0.888874 -0.565318,0.105206 -1.101972,0.167529 -1.236669,0.14362 -0.130878,-0.02323 -0.546835,-0.16732 -0.92435,-0.320198 -1.224357,-0.495816 -3.590393,-0.707164 -4.6527,-0.415607 -0.784451,0.215298 -0.933055,0.283201 -1.02521,0.468451 -0.134529,0.270433 -0.434422,0.619743 -0.971261,1.131308 -0.447835,0.426751 -0.735683,0.588867 -1.045577,0.588867 -0.08086,0 -0.271518,0.104003 -0.423676,0.231119 -0.292106,0.244031 -1.111069,0.714897 -1.582308,0.909752 -0.889786,0.367925 -2.294913,0.63407 -2.480062,0.469749 z"
       style="fill:#000000;stroke-width:0.0754862" />
  </g>
</svg>
